{"title":"Salo.Or.The.120.Days.Of.Sodom.1975.BRrip.XviD.AC3.1ch - CODY","uid":6089377,"size":1009548176,"categoryP":"video","categoryS":"movies","magnet":"?xt=urn:btih:8cdb318a5912561bab32690fc63350ff2a983f92&amp;dn=Salo.Or.The.120.Days.Of.Sodom.1975.BRrip.XviD.AC3.1ch+-+CODY&amp;tr=udp%3A%2F%2Ftracker.openbittorrent.com%3A80&amp;tr=udp%3A%2F%2Fopen.demonii.com%3A1337&amp;tr=udp%3A%2F%2Ftracker.coppersurfer.tk%3A6969&amp;tr=udp%3A%2F%2Fexodus.desync.com%3A6969","seeders":1,"leechers":0,"uploader":"CODYBOSS1969","files":6,"time":1294479841,"description":"A Controversial Pier Paolo Passolini's Masterpiece !!\n\n\nThe final vision of a controversial filmmaker.\n\n\n\n\nGeneral\nComplete name                    : Salo.Or.The.120.Days.Of.Sodom.1975.BRrip.XviD.AC3.1ch - CODY.avi\nFormat                           : AVI\nFormat/Info                      : Audio Video Interleave\nFile size                        : 962 MiB\nDuration                         : 1h 56mn\nOverall bit rate                 : 1 154 Kbps\nWriting application              : VirtualDubMod 1.5.10.2 (build 2540/release)\nWriting library                  : VirtualDubMod build 2540/release\n\nVideo\nID                               : 0\nFormat                           : MPEG-4 Visual\nFormat profile                   : Advanced Simple@L5\nFormat settings, BVOP            : Yes\nFormat settings, QPel            : No\nFormat settings, GMC             : No warppoints\nFormat settings, Matrix          : Default (H.263)\nCodec ID                         : XVID\nCodec ID/Hint                    : XviD\nDuration                         : 1h 56mn\nBit rate                         : 920 Kbps\nWidth                            : 640 pixels\nHeight                           : 344 pixels\nDisplay aspect ratio             : 1.860\nFrame rate                       : 23.976 fps\nColor space                      : YUV\nChroma subsampling               : 4:2:0\nBit depth                        : 8 bits\nScan type                        : Progressive\nCompression mode                 : Lossy\nBits/(Pixel*Frame)               : 0.174\nStream size                      : 768 MiB (80%)\nWriting library                  : XviD 1.2.0.dev47 (UTC 2006-11-01)\n\nAudio\nID                               : 1\nFormat                           : AC-3\nFormat/Info                      : Audio Coding 3\nMode extension                   : CM (complete main)\nCodec ID                         : 2000\nDuration                         : 1h 56mn\nBit rate mode                    : Constant\nBit rate                         : 224 Kbps\nChannel(s)                       : 2 channels\nChannel positions                : Front: L R\nSampling rate                    : 48.0 KHz\nBit depth                        : 16 bits\nCompression mode                 : Lossy\nStream size                      : 187 MiB (19%)\nAlignment                        : Split accross interleaves\nInterleave, duration             : 42 ms (1.00 video frame)\nInterleave, preload duration     : 500 ms\n\n\n\n\nIMDB: &lt;a href=&quot; http://www.imdb.com/title/tt0073650/&quot; rel=&quot;nofollow&quot; target=&quot;_NEW&quot;&gt; http://www.imdb.com/title/tt0073650/&lt;/a&gt;\n\n\nSubtitles included:   English, Romanian","torrent":{"xt":"urn:btih:8cdb318a5912561bab32690fc63350ff2a983f92","amp;dn":"Salo.Or.The.120.Days.Of.Sodom.1975.BRrip.XviD.AC3.1ch+-+CODY","amp;tr":["udp%3A%2F%2Ftracker.openbittorrent.com%3A80","udp%3A%2F%2Fopen.demonii.com%3A1337","udp%3A%2F%2Ftracker.coppersurfer.tk%3A6969","udp%3A%2F%2Fexodus.desync.com%3A6969"],"infoHash":"8cdb318a5912561bab32690fc63350ff2a983f92","infoHashBuffer":{"type":"Buffer","data":[140,219,49,138,89,18,86,27,171,50,105,15,198,51,80,255,42,152,63,146]},"announce":[],"urlList":[]}}